<svg width="25" height="24" viewBox="0 0 25 24" fill="none" xmlns="http://www.w3.org/2000/svg">
<path opacity="0.4" d="M12.47 22C17.9928 22 22.47 17.5228 22.47 12C22.47 6.47715 17.9928 2 12.47 2C6.94712 2 2.46997 6.47715 2.46997 12C2.46997 17.5228 6.94712 22 12.47 22Z" fill="white"/>
<path d="M15.4701 10.23L12.5701 8.56C11.8501 8.14 10.9801 8.14 10.2601 8.56C9.54011 8.98 9.11011 9.72 9.11011 10.56V13.91C9.11011 14.74 9.54011 15.49 10.2601 15.91C10.6201 16.12 11.0201 16.22 11.4101 16.22C11.8101 16.22 12.2001 16.12 12.5601 15.91L15.4601 14.24C16.1801 13.82 16.6101 13.08 16.6101 12.24C16.6301 11.4 16.2001 10.65 15.4701 10.23Z" fill="white"/>
</svg>
