<svg width="108" height="21" viewBox="0 0 108 21" fill="none" xmlns="http://www.w3.org/2000/svg">
<path d="M34.8651 18.1968C33.316 18.1968 31.9467 17.8925 30.7572 17.2839C29.5677 16.6615 28.6479 15.7832 27.9978 14.649C27.3477 13.5149 27.0227 12.1801 27.0227 10.6448C27.0227 9.10953 27.3477 7.7748 27.9978 6.64062C28.6479 5.49261 29.5677 4.61431 30.7572 4.00572C31.9467 3.38331 33.316 3.0721 34.8651 3.0721C35.9163 3.0721 36.843 3.18275 37.6453 3.40406C38.4613 3.61153 39.2082 3.94348 39.886 4.39992V7.40826C39.2774 6.91033 38.5789 6.55071 37.7905 6.32941C37.0159 6.09427 36.1307 5.97671 35.1349 5.97671C34.2081 5.97671 33.3713 6.17035 32.6244 6.55763C31.8914 6.93108 31.3105 7.4705 30.8817 8.17591C30.4529 8.88131 30.2385 9.70428 30.2385 10.6448C30.2385 11.5992 30.4322 12.436 30.8194 13.1552C31.2206 13.8606 31.7807 14.407 32.5 14.7943C33.2192 15.1815 34.0491 15.3752 34.9896 15.3752C35.8472 15.3752 36.5941 15.223 37.2303 14.9187V12.1179H34.8859V9.79419H40.2802V16.786C38.9108 17.7265 37.1058 18.1968 34.8651 18.1968Z" fill="white"/>
<path d="M41.0084 7.92694H44.0375V9.3585C44.4386 8.8744 44.9988 8.50786 45.718 8.2589C46.4373 7.9961 47.2533 7.8647 48.1662 7.8647V10.2506C47.2118 10.2506 46.3681 10.3959 45.635 10.6863C44.9158 10.9768 44.4179 11.4194 44.1412 12.0141V17.8856H41.0084V7.92694Z" fill="white"/>
<path d="M54.1866 18.1968C52.2779 18.1968 50.7772 17.7404 49.6845 16.8275C48.5918 15.9008 48.0454 14.6075 48.0454 12.9478C48.0454 11.3018 48.5295 10.0017 49.4977 9.04729C50.4798 8.09292 51.8768 7.61573 53.6887 7.61573C54.8782 7.61573 55.8879 7.83704 56.7178 8.27964C57.5477 8.72225 58.177 9.33775 58.6058 10.1261C59.0345 10.9007 59.2489 11.779 59.2489 12.761V14.0266H51.033C51.2543 15.2991 52.4438 15.9354 54.6016 15.9354C55.2378 15.9354 55.8948 15.88 56.5725 15.7694C57.2503 15.6587 57.8381 15.5066 58.336 15.3129V17.5121C57.8519 17.7196 57.2295 17.8856 56.4688 18.0101C55.7081 18.1346 54.9473 18.1968 54.1866 18.1968ZM56.2821 11.9934C56.2406 11.3295 55.9916 10.8177 55.5352 10.4581C55.0787 10.0847 54.4494 9.89792 53.6472 9.89792C52.8588 9.89792 52.2364 10.0847 51.7799 10.4581C51.3235 10.8315 51.0745 11.3433 51.033 11.9934H56.2821Z" fill="white"/>
<path d="M65.6705 18.1968C63.7618 18.1968 62.261 17.7404 61.1684 16.8275C60.0757 15.9008 59.5293 14.6075 59.5293 12.9478C59.5293 11.3018 60.0134 10.0017 60.9816 9.04729C61.9637 8.09292 63.3606 7.61573 65.1726 7.61573C66.3621 7.61573 67.3718 7.83704 68.2017 8.27964C69.0315 8.72225 69.6609 9.33775 70.0897 10.1261C70.5184 10.9007 70.7328 11.779 70.7328 12.761V14.0266H62.5169C62.7382 15.2991 63.9277 15.9354 66.0854 15.9354C66.7217 15.9354 67.3787 15.88 68.0564 15.7694C68.7342 15.6587 69.322 15.5066 69.8199 15.3129V17.5121C69.3358 17.7196 68.7134 17.8856 67.9527 18.0101C67.192 18.1346 66.4312 18.1968 65.6705 18.1968ZM67.766 11.9934C67.7245 11.3295 67.4755 10.8177 67.0191 10.4581C66.5626 10.0847 65.9333 9.89792 65.1311 9.89792C64.3427 9.89792 63.7203 10.0847 63.2638 10.4581C62.8074 10.8315 62.5584 11.3433 62.5169 11.9934H67.766Z" fill="white"/>
<path d="M71.4282 7.92694H74.4573V9.15103C74.9137 8.63926 75.4531 8.2589 76.0755 8.00993C76.7118 7.74713 77.3757 7.61573 78.0673 7.61573C79.4227 7.61573 80.4324 7.98227 81.0964 8.71534C81.7741 9.43457 82.113 10.4097 82.113 11.6407V17.8856H78.9801V11.9934C78.9801 10.7071 78.3854 10.0639 77.1959 10.0639C76.6703 10.0639 76.1793 10.1953 75.7228 10.4581C75.2664 10.7071 74.8791 11.0805 74.561 11.5784V17.8856H71.4282V7.92694Z" fill="white"/>
<path d="M84.8772 6.39165C84.3931 6.39165 83.9851 6.23259 83.6531 5.91447C83.3212 5.59634 83.1552 5.19523 83.1552 4.71113C83.1552 4.24086 83.3212 3.84666 83.6531 3.52854C83.9851 3.19658 84.3931 3.03061 84.8772 3.03061C85.3613 3.03061 85.7693 3.19658 86.1013 3.52854C86.4332 3.84666 86.5992 4.24086 86.5992 4.71113C86.5992 5.19523 86.4332 5.59634 86.1013 5.91447C85.7693 6.23259 85.3613 6.39165 84.8772 6.39165ZM83.3004 7.92694H86.454V17.8856H83.3004V7.92694Z" fill="white"/>
<path d="M91.797 18.1968C91.0501 18.1968 90.2479 18.1138 89.3904 17.9478C88.5466 17.7957 87.8827 17.5744 87.3986 17.2839V14.8358C87.9519 15.1677 88.6158 15.4374 89.3904 15.6449C90.1649 15.8524 90.8842 15.9561 91.5481 15.9561C92.1152 15.9561 92.5301 15.9077 92.7929 15.8109C93.0557 15.7141 93.1871 15.5342 93.1871 15.2714C93.1871 15.064 93.111 14.898 92.9589 14.7735C92.8067 14.6352 92.5716 14.5176 92.2535 14.4208C91.9492 14.3102 91.4374 14.1511 90.7182 13.9436C89.8745 13.6947 89.2106 13.4457 88.7265 13.1967C88.2562 12.9339 87.8966 12.6089 87.6476 12.2216C87.4125 11.8343 87.2949 11.3364 87.2949 10.7278C87.2949 9.69045 87.7029 8.91589 88.519 8.40413C89.3489 7.87853 90.4692 7.61573 91.88 7.61573C92.5716 7.61573 93.2839 7.69181 94.017 7.84395C94.7639 7.98227 95.3379 8.16899 95.739 8.40413V10.7901C95.3379 10.5273 94.8123 10.3129 94.1622 10.1469C93.526 9.98091 92.9036 9.89792 92.295 9.89792C91.7279 9.89792 91.2853 9.95325 90.9672 10.0639C90.6629 10.1746 90.5107 10.382 90.5107 10.6863C90.5107 10.9491 90.6559 11.1497 90.9464 11.288C91.2507 11.4263 91.8109 11.5992 92.6269 11.8067L93.0419 11.9104C93.9133 12.1455 94.591 12.4083 95.0751 12.6988C95.5592 12.9754 95.8981 13.3143 96.0917 13.7154C96.2992 14.1027 96.4029 14.5937 96.4029 15.1885C96.4029 16.1013 96.0087 16.8344 95.2203 17.3877C94.4319 17.9271 93.2908 18.1968 91.797 18.1968Z" fill="white"/>
<path d="M97.1271 2.55342H100.26V9.06804C100.73 8.58394 101.263 8.22432 101.857 7.98918C102.452 7.74022 103.088 7.61573 103.766 7.61573C105.122 7.61573 106.131 7.98227 106.795 8.71534C107.473 9.43457 107.812 10.4097 107.812 11.6407V17.8856H104.679V11.9934C104.679 10.7071 104.084 10.0639 102.895 10.0639C102.369 10.0639 101.878 10.1953 101.422 10.4581C100.965 10.7071 100.578 11.0805 100.26 11.5784V17.8856H97.1271V2.55342Z" fill="white"/>
<path fill-rule="evenodd" clip-rule="evenodd" d="M16.3235 5.48898C16.3235 8.1244 14.1871 10.2608 11.5517 10.2608C8.91625 10.2608 6.77982 8.1244 6.77982 5.48898C6.77982 2.85356 8.91625 0.717132 11.5517 0.717132C14.1871 0.717132 16.3235 2.85356 16.3235 5.48898ZM0.451981 9.91406C5.65079 9.56362 10.1817 13.456 10.6038 18.6658C10.6475 19.2056 10.6454 19.7386 10.6007 20.2609C5.40193 20.6114 0.870989 16.719 0.448962 11.5092C0.40523 10.9694 0.407321 10.4364 0.451981 9.91406ZM13.9646 20.0786C19.1744 19.6565 23.0667 15.1256 22.7163 9.92682C22.194 9.88216 21.661 9.88007 21.1211 9.92381C15.9113 10.3458 12.019 14.8767 12.3694 20.0755C12.8917 20.1202 13.4247 20.1223 13.9646 20.0786Z" fill="white"/>
</svg>
