<svg width="72" height="21" viewBox="0 0 72 21" fill="none" xmlns="http://www.w3.org/2000/svg">
<path d="M34.2016 12.607V19.8341H36.5497V12.1374C36.5497 11.1633 36.341 10.3023 35.9235 9.55438C35.5061 8.80644 34.9321 8.22375 34.2016 7.8063C33.4884 7.38884 32.6622 7.18012 31.7229 7.18012C30.7837 7.18012 29.9401 7.39754 29.1921 7.83239C28.6287 8.14684 28.1591 8.55012 27.7832 9.04222V1.20534H25.4351V19.8341H27.7832V12.607C27.7832 11.9808 27.9224 11.4242 28.2007 10.9372C28.479 10.4502 28.8616 10.0675 29.3487 9.78919C29.8357 9.51089 30.3923 9.37174 31.0185 9.37174C31.9577 9.37174 32.7231 9.67613 33.3145 10.2849C33.9059 10.8937 34.2016 11.6677 34.2016 12.607Z" fill="white"/>
<path d="M40.6682 19.4167C41.4857 19.8689 42.4076 20.095 43.4338 20.095C44.4774 20.095 45.3906 19.8689 46.1733 19.4167C46.9734 18.947 47.5996 18.3035 48.0519 17.486C48.5041 16.6685 48.7302 15.7205 48.7302 14.6421V7.44103H46.3821V14.5377C46.3821 15.5639 46.1211 16.3728 45.5993 16.9641C45.0775 17.5381 44.3557 17.8251 43.4338 17.8251C42.825 17.8251 42.2945 17.6947 41.8423 17.4338C41.39 17.1729 41.0422 16.7989 40.7986 16.3119C40.5725 15.8075 40.4595 15.2161 40.4595 14.5377V7.44103H38.1113V14.6421C38.1113 15.7205 38.3374 16.6685 38.7896 17.486C39.2419 18.3035 39.8681 18.947 40.6682 19.4167Z" fill="white"/>
<path fill-rule="evenodd" clip-rule="evenodd" d="M56.3128 20.095C55.0779 20.095 53.9647 19.8167 52.9732 19.2601C51.9818 18.6861 51.1991 17.9121 50.6251 16.9381C50.0511 15.964 49.7641 14.8595 49.7641 13.6245C49.7641 12.407 50.0424 11.3112 50.599 10.3371C51.173 9.36305 51.9383 8.59772 52.895 8.04111C53.869 7.46712 54.9561 7.18012 56.1563 7.18012C57.3043 7.18012 58.3131 7.44103 59.1828 7.96284C60.0699 8.48466 60.757 9.2065 61.244 10.1284C61.7484 11.0502 62.0006 12.0939 62.0006 13.2593C62.0006 13.4332 61.9919 13.6245 61.9745 13.8333C61.9571 14.0246 61.9224 14.2507 61.8702 14.5116H52.1647C52.2473 14.9942 52.3951 15.4378 52.608 15.8422C52.9558 16.4858 53.4516 16.9902 54.0951 17.3555C54.7387 17.7034 55.4779 17.8773 56.3128 17.8773C57.0086 17.8773 57.6435 17.7556 58.2175 17.5121C58.8089 17.2685 59.3133 16.9033 59.7307 16.4162L61.244 17.9556C60.6526 18.6514 59.9221 19.1819 59.0524 19.5471C58.2001 19.9124 57.2869 20.095 56.3128 20.095ZM52.5819 11.3285C52.3869 11.698 52.2495 12.1067 52.1695 12.5548H59.712C59.6479 12.0419 59.515 11.5896 59.3133 11.1981C59.0176 10.6067 58.6001 10.1545 58.0609 9.84138C57.5217 9.51089 56.8695 9.34565 56.1041 9.34565C55.304 9.34565 54.5996 9.51959 53.9908 9.86747C53.382 10.2153 52.9124 10.7024 52.5819 11.3285Z" fill="white"/>
<path d="M63.5174 19.0514C64.0392 19.3819 64.6045 19.6428 65.2133 19.8341C65.8394 20.0081 66.5004 20.095 67.1962 20.095C68.5877 20.095 69.6922 19.7559 70.5097 19.0775C71.3446 18.3991 71.762 17.4773 71.762 16.3119C71.762 15.5466 71.5968 14.9291 71.2663 14.4594C70.9532 13.9898 70.5445 13.6158 70.04 13.3375C69.5356 13.0592 69.0051 12.8418 68.4485 12.6853C67.8919 12.5113 67.3527 12.3461 66.8309 12.1895C66.3265 12.033 65.9177 11.8417 65.6046 11.6155C65.2915 11.3894 65.135 11.0676 65.135 10.6502C65.135 10.2327 65.3089 9.91095 65.6568 9.68483C66.0221 9.44132 66.5439 9.31956 67.2222 9.31956C67.8658 9.31956 68.4398 9.44132 68.9442 9.68483C69.466 9.92834 69.9009 10.2762 70.2488 10.7285L71.762 9.2152C71.275 8.53684 70.6488 8.03242 69.8835 7.70193C69.1356 7.35406 68.2746 7.18012 67.3005 7.18012C66.3786 7.18012 65.5872 7.32797 64.9263 7.62366C64.2827 7.91936 63.7783 8.34551 63.413 8.90211C63.0477 9.44132 62.8651 10.0849 62.8651 10.8328C62.8651 11.5808 63.0216 12.1808 63.3347 12.6331C63.6652 13.0853 64.0827 13.4419 64.5871 13.7028C65.0915 13.9637 65.622 14.1811 66.1786 14.3551C66.7526 14.5116 67.2918 14.6769 67.7962 14.8508C68.3007 15.0073 68.7094 15.2161 69.0225 15.477C69.353 15.7205 69.5182 16.0684 69.5182 16.5206C69.5182 16.9728 69.3182 17.3294 68.9181 17.5903C68.5181 17.8338 67.9528 17.9556 67.2222 17.9556C66.4917 17.9556 65.8307 17.8251 65.2393 17.5642C64.648 17.2859 64.1261 16.8685 63.6739 16.3119L62.1606 17.8251C62.5433 18.2948 62.9955 18.7035 63.5174 19.0514Z" fill="white"/>
<path d="M69.564 3.27987V3.74225H69.0074V5.14901H68.479V3.74225H67.9224V3.27987H69.564Z" fill="white"/>
<path d="M71.7335 3.25185V5.15742H71.2051V4.23265L70.818 4.66701H70.6598L70.2727 4.23265V5.15742H69.7443V3.25185H69.9308L70.7389 4.06452L71.547 3.25185H71.7335Z" fill="white"/>
<path d="M2.91649 6.32116C3.64772 8.66577 6.14119 9.97367 8.4858 9.24244C10.8304 8.5112 16.3836 4.69372 15.6524 2.34911C14.9211 0.00449442 8.18237 0.0206148 5.83776 0.75185C3.49315 1.48309 2.18525 3.97655 2.91649 6.32116Z" fill="white"/>
<path d="M1.49965 19.1775C2.87582 20.5537 5.10679 20.5537 6.48295 19.1775C7.85912 17.8013 10.3506 13.0786 8.97472 11.7024C7.59856 10.3264 2.87582 12.818 1.49965 14.1941C0.123487 15.5702 0.123487 17.8013 1.49965 19.1775Z" fill="white"/>
<path d="M14.6677 20.5305C17.04 21.1662 19.4785 19.7584 20.1142 17.386C20.7497 15.0137 20.493 8.2799 18.1206 7.64417C15.7483 7.00856 12.159 12.7118 11.5233 15.0841C10.8875 17.4564 12.2953 19.8948 14.6677 20.5305Z" fill="white"/>
</svg>
