<svg width="70" height="23" viewBox="0 0 70 23" fill="none" xmlns="http://www.w3.org/2000/svg">
<path d="M22.751 20.1279C22.751 20.4607 23.0207 20.7304 23.3535 20.7304H25.5877C25.9205 20.7304 26.1902 20.4607 26.1902 20.1279V2.74584C26.1902 2.41307 25.9205 2.1433 25.5877 2.1433H23.3535C23.0207 2.1433 22.751 2.41307 22.751 2.74584V20.1279Z" fill="white"/>
<path fill-rule="evenodd" clip-rule="evenodd" d="M31.2454 20.1867C32.2822 20.8021 33.4877 21.1098 34.8617 21.1098C36.2273 21.1098 37.4285 20.8063 38.4653 20.1994C39.5106 19.584 40.324 18.7369 40.9057 17.6579C41.4957 16.5705 41.7908 15.3187 41.7908 13.9025C41.7908 12.4948 41.4999 11.2514 40.9183 10.1724C40.3367 9.08503 39.5232 8.23364 38.4779 7.61828C37.4411 7.00293 36.2357 6.69525 34.8617 6.69525C33.5129 6.69525 32.3202 6.99871 31.2833 7.60564C30.2465 8.21257 29.433 9.05974 28.843 10.1471C28.2529 11.2261 27.9579 12.4779 27.9579 13.9025C27.9579 15.3102 28.2445 16.5578 28.8177 17.6452C29.3993 18.7242 30.2086 19.5714 31.2454 20.1867ZM37.3273 16.7854C36.7878 17.5272 35.9659 17.8981 34.8617 17.8981C33.7911 17.8981 32.9777 17.5399 32.4213 16.8233C31.8734 16.0984 31.5994 15.1248 31.5994 13.9025C31.5994 13.1101 31.7132 12.4147 31.9408 11.8162C32.1769 11.2177 32.5351 10.7499 33.0156 10.4127C33.4961 10.0755 34.1114 9.90691 34.8617 9.90691C35.9491 9.90691 36.7667 10.2694 37.3147 10.9943C37.871 11.7193 38.1492 12.6887 38.1492 13.9025C38.1492 15.0742 37.8752 16.0352 37.3273 16.7854Z" fill="white"/>
<path fill-rule="evenodd" clip-rule="evenodd" d="M47.1002 21.1098C46.1224 21.1098 45.292 20.9243 44.6093 20.5534C43.9349 20.1741 43.4207 19.6725 43.0666 19.0487C42.721 18.4165 42.5482 17.7211 42.5482 16.9624C42.5482 16.3302 42.6452 15.7528 42.839 15.2302C43.0329 14.7075 43.3448 14.2481 43.7747 13.8519C44.2131 13.4473 44.7989 13.1101 45.5323 12.8404C46.0381 12.6549 46.6408 12.4906 47.3404 12.3473C48.0401 12.204 48.8325 12.0691 49.7176 11.9426C50.2385 11.8633 50.7901 11.7795 51.3724 11.6913C51.3071 11.1284 51.1221 10.6979 50.8176 10.4C50.4299 10.0207 49.7808 9.83104 48.8704 9.83104C48.3646 9.83104 47.8378 9.95327 47.2898 10.1977C46.7419 10.4422 46.3584 10.8763 46.1392 11.5001L43.0287 10.5138C43.3743 9.38428 44.0234 8.46546 44.9759 7.75737C45.9285 7.04929 47.2266 6.69525 48.8704 6.69525C50.0758 6.69525 51.1464 6.8807 52.082 7.2516C53.0177 7.6225 53.7258 8.26314 54.2063 9.17354C54.476 9.67931 54.6362 10.1851 54.6868 10.6909C54.7374 11.1966 54.7626 11.7614 54.7626 12.3852V20.7304H51.7533V19.0541C51.2099 19.6943 50.6325 20.1772 50.021 20.5028C49.2539 20.9075 48.2803 21.1098 47.1002 21.1098ZM47.8336 18.4039C48.4658 18.4039 48.9968 18.2943 49.4267 18.0751C49.8651 17.8475 50.2107 17.5904 50.4636 17.3038C50.7249 17.0172 50.9019 16.777 50.9946 16.5831C51.1717 16.2122 51.2728 15.7823 51.2981 15.2934C51.3186 14.9904 51.3329 14.7186 51.341 14.4782C50.7746 14.5749 50.2882 14.6612 49.8819 14.737C49.2497 14.8466 48.7397 14.9478 48.352 15.0405C47.9642 15.1332 47.6228 15.2344 47.3278 15.344C46.9906 15.4788 46.7166 15.6264 46.5059 15.7865C46.3036 15.9382 46.1519 16.1068 46.0507 16.2923C45.958 16.4777 45.9116 16.6843 45.9116 16.9119C45.9116 17.2238 45.9875 17.4935 46.1392 17.7211C46.2994 17.9403 46.5228 18.1089 46.8094 18.2269C47.096 18.3449 47.4374 18.4039 47.8336 18.4039Z" fill="white"/>
<path fill-rule="evenodd" clip-rule="evenodd" d="M59.024 20.1614C59.9681 20.7937 61.0681 21.1098 62.3241 21.1098C63.6813 21.1098 64.8151 20.7937 65.7255 20.1614C65.8251 20.0922 65.9221 20.0203 66.0163 19.9456V20.7304H69.0509V2.52262H65.5864V7.51497C64.7365 6.96849 63.7081 6.69525 62.5012 6.69525C61.1946 6.69525 60.0566 7.00714 59.0872 7.63093C58.1178 8.25471 57.3634 9.11031 56.8239 10.1977C56.2928 11.2767 56.0273 12.5116 56.0273 13.9025C56.0273 15.2681 56.2886 16.4946 56.8112 17.582C57.3423 18.6694 58.0799 19.5292 59.024 20.1614ZM66.0163 13.9025C66.0163 14.7286 65.9151 15.4535 65.7128 16.0773C65.5105 16.7011 65.1775 17.1858 64.7139 17.5314C64.2587 17.877 63.6476 18.0498 62.8805 18.0498C62.1387 18.0498 61.5318 17.8644 61.0597 17.4935C60.5877 17.1226 60.2378 16.6253 60.0102 16.0015C59.7826 15.3693 59.6688 14.6696 59.6688 13.9025C59.6688 13.1439 59.7868 12.4526 60.0229 11.8288C60.2589 11.1966 60.6214 10.6951 61.1103 10.3242C61.6076 9.94484 62.2398 9.75517 63.0069 9.75517C63.7234 9.75517 64.3009 9.92798 64.7392 10.2736C65.186 10.6192 65.5105 11.1039 65.7128 11.7277C65.9151 12.3515 66.0163 13.0764 66.0163 13.9025Z" fill="white"/>
<path fill-rule="evenodd" clip-rule="evenodd" d="M0.434822 1.52812C0.178467 2.03125 0.178467 2.68988 0.178467 4.00714V18.9929C0.178467 20.3102 0.178467 20.9688 0.434822 21.4719C0.660319 21.9145 1.02013 22.2743 1.4627 22.4998C1.96582 22.7561 2.62445 22.7561 3.9417 22.7561H12.2074C13.5247 22.7561 14.1833 22.7561 14.6864 22.4998C15.129 22.2743 15.4888 21.9145 15.7143 21.4719C15.9706 20.9688 15.9706 20.3102 15.9706 18.9929V2.39432C15.9706 1.6416 15.9706 1.26524 15.8241 0.977741C15.6953 0.724849 15.4897 0.519241 15.2368 0.390385C14.9493 0.243896 14.5729 0.243896 13.8202 0.243896H3.94171C2.62445 0.243896 1.96582 0.243896 1.4627 0.500252C1.02013 0.725749 0.660319 1.08556 0.434822 1.52812ZM8.80339 10.2813C8.4481 10.7863 7.70142 10.7863 7.34613 10.2813L2.6954 3.67026C2.27855 3.0777 2.70103 2.25999 3.42403 2.25999L12.7255 2.25999C13.4485 2.25999 13.871 3.0777 13.4541 3.67026L8.80339 10.2813ZM7.34624 12.719C7.70153 12.2139 8.44821 12.2139 8.8035 12.719L13.4542 19.33C13.8711 19.9226 13.4486 20.7403 12.7256 20.7403H3.42414C2.70114 20.7403 2.27866 19.9226 2.69551 19.33L7.34624 12.719Z" fill="white"/>
</svg>
