<svg width="97" height="19" viewBox="0 0 97 19" fill="none" xmlns="http://www.w3.org/2000/svg">
<path d="M2.68743 2.24028C4.00164 0.985549 5.78614 0.25316 7.59481 0.162076C8.21381 0.162076 8.83467 0.165794 9.45366 0.160217C9.42206 0.823829 9.45366 1.4893 9.43507 2.15291C9.34771 3.63628 8.79935 5.08618 7.8755 6.24983C6.67467 7.81498 4.83812 8.86524 2.88818 9.13663C2.03683 9.27419 1.17246 9.18682 0.315528 9.21099C0.330399 8.48045 0.283928 7.74807 0.341552 7.01939C0.508849 5.21259 1.36206 3.48199 2.68743 2.24028Z" fill="white"/>
<path d="M10.0266 0.160309C10.6902 0.167744 11.3538 0.156591 12.0193 0.164027C13.6755 0.281134 15.3095 0.916863 16.5568 2.01916C17.9323 3.19954 18.8748 4.88738 19.1164 6.69047C19.2224 7.52695 19.1555 8.37273 19.1963 9.21294C18.6164 9.21108 18.0383 9.20922 17.4583 9.21294C16.0326 9.1739 14.631 8.7129 13.4376 7.9359C12.8874 7.54182 12.3223 7.14217 11.9096 6.59567C11.0044 5.58445 10.3891 4.31485 10.1567 2.97648C9.982 2.04705 10.0526 1.09903 10.0266 0.160309Z" fill="white"/>
<path d="M0.316686 9.74452C0.905943 9.77798 1.49706 9.71664 2.08446 9.7817C4.59949 9.83561 7.04017 11.2483 8.34322 13.399C9.09048 14.6036 9.492 16.0312 9.43995 17.4495C9.43809 17.9142 9.44553 18.377 9.43251 18.8399C8.49937 18.812 7.55693 18.8882 6.63308 18.7079C4.5809 18.3622 2.69416 17.1409 1.5584 15.3973C0.697751 14.1296 0.268356 12.5811 0.312968 11.0513C0.312968 10.6145 0.312968 10.1795 0.316686 9.74452Z" fill="white"/>
<path d="M16.0556 9.94146C17.0668 9.71654 18.1097 9.75371 19.1376 9.75371L19.1822 9.79833C19.1599 10.7705 19.2361 11.7538 19.0409 12.7149C18.6301 14.8711 17.2025 16.7969 15.2823 17.8546C14.0871 18.5201 12.7153 18.8472 11.349 18.8324C10.9122 18.8342 10.4735 18.8249 10.0366 18.8379C10.0366 18.0331 10.0032 17.2245 10.0943 16.4233C10.3062 14.4845 11.3546 12.6796 12.8621 11.4601C13.7952 10.724 14.892 10.1905 16.0556 9.94146Z" fill="white"/>
<path d="M26.8132 15.2394C26.8132 15.5667 26.6999 15.8436 26.4733 16.0701C26.2594 16.2841 25.9888 16.3911 25.6615 16.3911C25.3469 16.3911 25.0825 16.2841 24.8686 16.0701C24.6546 15.8436 24.5476 15.5667 24.5476 15.2394V3.57171C24.5476 3.24446 24.6546 2.97385 24.8686 2.75988C25.0951 2.53332 25.372 2.42004 25.6993 2.42004C26.0265 2.42004 26.2908 2.53332 26.4922 2.75988C26.7062 2.97385 26.8132 3.24446 26.8132 3.57171V15.2394Z" fill="white"/>
<path d="M35.9066 6.2904C36.2339 6.2904 36.5045 6.40368 36.7184 6.63024C36.9324 6.84421 37.0394 7.11482 37.0394 7.44207V12.2375C37.0394 13.5717 36.6681 14.629 35.9255 15.4094C35.1829 16.1897 34.113 16.5799 32.7159 16.5799C31.3188 16.5799 30.249 16.1897 29.5064 15.4094C28.7763 14.629 28.4113 13.5717 28.4113 12.2375V7.44207C28.4113 7.11482 28.5183 6.84421 28.7323 6.63024C28.9463 6.40368 29.2169 6.2904 29.5441 6.2904C29.8714 6.2904 30.142 6.40368 30.356 6.63024C30.5699 6.84421 30.6769 7.11482 30.6769 7.44207V12.2375C30.6769 13.0053 30.8468 13.578 31.1867 13.9556C31.5265 14.3206 32.0363 14.5031 32.7159 14.5031C33.4082 14.5031 33.9242 14.3206 34.2641 13.9556C34.6039 13.578 34.7738 13.0053 34.7738 12.2375V7.44207C34.7738 7.11482 34.8808 6.84421 35.0948 6.63024C35.3088 6.40368 35.5794 6.2904 35.9066 6.2904Z" fill="white"/>
<path d="M43.8534 6.10161C44.8603 6.10161 45.6029 6.34704 46.0812 6.83792C46.5595 7.31621 46.8742 7.93924 47.0252 8.70702L46.7042 8.5371L46.8553 8.23503C47.0063 7.94554 47.2392 7.63716 47.5538 7.30991C47.8685 6.97008 48.2461 6.68688 48.6866 6.46032C49.1397 6.22118 49.6432 6.10161 50.197 6.10161C51.1032 6.10161 51.7892 6.2967 52.2549 6.68688C52.7332 7.07706 53.0604 7.5994 53.2367 8.2539C53.4129 8.89582 53.501 9.61325 53.501 10.4062V15.2394C53.501 15.5667 53.394 15.8436 53.18 16.0701C52.966 16.2841 52.6954 16.3911 52.3682 16.3911C52.0409 16.3911 51.7703 16.2841 51.5564 16.0701C51.3424 15.8436 51.2354 15.5667 51.2354 15.2394V10.4062C51.2354 9.99085 51.1851 9.61954 51.0844 9.29229C50.9837 8.95246 50.8012 8.68185 50.5368 8.48046C50.2725 8.27908 49.8949 8.17839 49.4041 8.17839C48.9258 8.17839 48.5167 8.27908 48.1769 8.48046C47.837 8.68185 47.579 8.95246 47.4028 9.29229C47.2392 9.61954 47.1574 9.99085 47.1574 10.4062V15.2394C47.1574 15.5667 47.0504 15.8436 46.8364 16.0701C46.6224 16.2841 46.3518 16.3911 46.0246 16.3911C45.6973 16.3911 45.4267 16.2841 45.2127 16.0701C44.9988 15.8436 44.8918 15.5667 44.8918 15.2394V10.4062C44.8918 9.99085 44.8414 9.61954 44.7407 9.29229C44.6401 8.95246 44.4575 8.68185 44.1932 8.48046C43.9289 8.27908 43.5513 8.17839 43.0604 8.17839C42.5822 8.17839 42.1731 8.27908 41.8333 8.48046C41.4934 8.68185 41.2354 8.95246 41.0592 9.29229C40.8956 9.61954 40.8137 9.99085 40.8137 10.4062V15.2394C40.8137 15.5667 40.7068 15.8436 40.4928 16.0701C40.2788 16.2841 40.0082 16.3911 39.681 16.3911C39.3537 16.3911 39.0831 16.2841 38.8691 16.0701C38.6552 15.8436 38.5482 15.5667 38.5482 15.2394V7.44207C38.5482 7.11482 38.6552 6.84421 38.8691 6.63024C39.0831 6.40368 39.3537 6.2904 39.681 6.2904C40.0082 6.2904 40.2788 6.40368 40.4928 6.63024C40.7068 6.84421 40.8137 7.11482 40.8137 7.44207V8.2539L40.5305 8.19727C40.6438 7.98329 40.8012 7.75674 41.0025 7.51759C41.2039 7.26586 41.4494 7.03301 41.7389 6.81904C42.0283 6.60507 42.3493 6.43515 42.7017 6.30928C43.0541 6.17083 43.438 6.10161 43.8534 6.10161Z" fill="white"/>
<path d="M57.1424 15.2394C57.1424 15.5667 57.0354 15.8436 56.8215 16.0701C56.6075 16.2841 56.3369 16.3911 56.0096 16.3911C55.6824 16.3911 55.4118 16.2841 55.1978 16.0701C54.9838 15.8436 54.8768 15.5667 54.8768 15.2394V7.44207C54.8768 7.11482 54.9838 6.84421 55.1978 6.63024C55.4118 6.40368 55.6824 6.2904 56.0096 6.2904C56.3369 6.2904 56.6075 6.40368 56.8215 6.63024C57.0354 6.84421 57.1424 7.11482 57.1424 7.44207V15.2394ZM55.9908 5.06322C55.5628 5.06322 55.2607 4.99399 55.0845 4.85554C54.9083 4.71709 54.8202 4.47165 54.8202 4.11923V3.76051C54.8202 3.3955 54.9146 3.15006 55.1034 3.0242C55.3048 2.88575 55.6069 2.81652 56.0096 2.81652C56.4502 2.81652 56.7585 2.88575 56.9347 3.0242C57.111 3.16265 57.1991 3.40809 57.1991 3.76051V4.11923C57.1991 4.48424 57.1047 4.73597 56.9159 4.87442C56.7271 5.00028 56.4187 5.06322 55.9908 5.06322Z" fill="white"/>
<path d="M63.9265 6.10161C64.8579 6.10161 65.5627 6.2967 66.041 6.68688C66.5319 7.07706 66.8654 7.5994 67.0416 8.2539C67.2304 8.89582 67.3248 9.61325 67.3248 10.4062V15.2394C67.3248 15.5667 67.2178 15.8436 67.0039 16.0701C66.7899 16.2841 66.5193 16.3911 66.192 16.3911C65.8648 16.3911 65.5942 16.2841 65.3802 16.0701C65.1662 15.8436 65.0593 15.5667 65.0593 15.2394V10.4062C65.0593 9.99085 65.0026 9.61954 64.8893 9.29229C64.7887 8.95246 64.5998 8.68185 64.3229 8.48046C64.046 8.27908 63.6496 8.17839 63.1335 8.17839C62.6301 8.17839 62.2021 8.27908 61.8497 8.48046C61.5098 8.68185 61.2455 8.95246 61.0567 9.29229C60.8805 9.61954 60.7924 9.99085 60.7924 10.4062V15.2394C60.7924 15.5667 60.6854 15.8436 60.4715 16.0701C60.2575 16.2841 59.9869 16.3911 59.6596 16.3911C59.3324 16.3911 59.0618 16.2841 58.8478 16.0701C58.6338 15.8436 58.5268 15.5667 58.5268 15.2394V7.44207C58.5268 7.11482 58.6338 6.84421 58.8478 6.63024C59.0618 6.40368 59.3324 6.2904 59.6596 6.2904C59.9869 6.2904 60.2575 6.40368 60.4715 6.63024C60.6854 6.84421 60.7924 7.11482 60.7924 7.44207V8.2539L60.5092 8.19727C60.6225 7.98329 60.7861 7.75674 61.0001 7.51759C61.2141 7.26586 61.4658 7.03301 61.7553 6.81904C62.0448 6.60507 62.372 6.43515 62.737 6.30928C63.102 6.17083 63.4985 6.10161 63.9265 6.10161Z" fill="white"/>
<path d="M78.5338 11.3502C78.5338 12.3823 78.301 13.2948 77.8353 14.0878C77.3822 14.8681 76.7654 15.4786 75.9851 15.9191C75.2173 16.3596 74.3551 16.5799 73.3985 16.5799C72.442 16.5799 71.5735 16.3596 70.7931 15.9191C70.0253 15.4786 69.4086 14.8681 68.9429 14.0878C68.4898 13.2948 68.2632 12.3823 68.2632 11.3502C68.2632 10.3181 68.4898 9.41187 68.9429 8.6315C69.4086 7.83855 70.0253 7.22181 70.7931 6.78128C71.5735 6.32816 72.442 6.10161 73.3985 6.10161C74.3551 6.10161 75.2173 6.32816 75.9851 6.78128C76.7654 7.22181 77.3822 7.83855 77.8353 8.6315C78.301 9.41187 78.5338 10.3181 78.5338 11.3502ZM76.2683 11.3502C76.2683 10.7083 76.1361 10.1545 75.8718 9.68877C75.6201 9.21048 75.2739 8.83918 74.8334 8.57486C74.4055 8.31054 73.9272 8.17839 73.3985 8.17839C72.8699 8.17839 72.3853 8.31054 71.9448 8.57486C71.5168 8.83918 71.1707 9.21048 70.9064 9.68877C70.6547 10.1545 70.5288 10.7083 70.5288 11.3502C70.5288 11.9795 70.6547 12.5333 70.9064 13.0116C71.1707 13.4773 71.5168 13.8423 71.9448 14.1066C72.3853 14.371 72.8699 14.5031 73.3985 14.5031C73.9272 14.5031 74.4055 14.371 74.8334 14.1066C75.2739 13.8423 75.6201 13.4773 75.8718 13.0116C76.1361 12.5333 76.2683 11.9795 76.2683 11.3502Z" fill="white"/>
<path d="M86.978 6.2904C87.3052 6.2904 87.5758 6.40368 87.7898 6.63024C88.0038 6.84421 88.1108 7.11482 88.1108 7.44207V12.2375C88.1108 13.5717 87.7395 14.629 86.9969 15.4094C86.2543 16.1897 85.1844 16.5799 83.7873 16.5799C82.3902 16.5799 81.3203 16.1897 80.5777 15.4094C79.8477 14.629 79.4827 13.5717 79.4827 12.2375V7.44207C79.4827 7.11482 79.5897 6.84421 79.8037 6.63024C80.0176 6.40368 80.2882 6.2904 80.6155 6.2904C80.9427 6.2904 81.2133 6.40368 81.4273 6.63024C81.6413 6.84421 81.7483 7.11482 81.7483 7.44207V12.2375C81.7483 13.0053 81.9182 13.578 82.258 13.9556C82.5979 14.3206 83.1076 14.5031 83.7873 14.5031C84.4796 14.5031 84.9956 14.3206 85.3354 13.9556C85.6753 13.578 85.8452 13.0053 85.8452 12.2375V7.44207C85.8452 7.11482 85.9522 6.84421 86.1662 6.63024C86.3801 6.40368 86.6507 6.2904 86.978 6.2904Z" fill="white"/>
<path d="M89.0343 14.8241C88.9084 14.6479 88.8518 14.4213 88.8643 14.1444C88.8769 13.8675 89.0406 13.6284 89.3552 13.427C89.5566 13.3011 89.7706 13.2508 89.9971 13.2759C90.2237 13.2885 90.444 13.4018 90.6579 13.6158C91.0229 13.9808 91.4068 14.264 91.8096 14.4654C92.2124 14.6667 92.7158 14.7674 93.32 14.7674C93.5088 14.7549 93.7165 14.7297 93.943 14.6919C94.1696 14.6416 94.3647 14.5409 94.5283 14.3898C94.7045 14.2262 94.7926 13.9808 94.7926 13.6535C94.7926 13.3766 94.6982 13.1564 94.5094 12.9927C94.3206 12.8291 94.0689 12.6907 93.7542 12.5774C93.4521 12.4641 93.1123 12.3571 92.7347 12.2564C92.3445 12.1431 91.9417 12.0173 91.5264 11.8788C91.1236 11.7404 90.7523 11.5642 90.4125 11.3502C90.0726 11.1236 89.7957 10.8279 89.5818 10.4628C89.3678 10.0978 89.2608 9.63842 89.2608 9.08462C89.2608 8.45529 89.437 7.92036 89.7895 7.47983C90.1419 7.0393 90.595 6.69947 91.1488 6.46032C91.7152 6.22118 92.3068 6.10161 92.9235 6.10161C93.3137 6.10161 93.7227 6.15195 94.1507 6.25265C94.5786 6.34075 94.9877 6.49179 95.3779 6.70576C95.7681 6.90715 96.0953 7.17776 96.3596 7.51759C96.4981 7.70639 96.5799 7.93295 96.6051 8.19727C96.6302 8.46158 96.5107 8.70073 96.2463 8.9147C96.0575 9.06574 95.8373 9.13496 95.5856 9.12238C95.3338 9.0972 95.1261 9.0091 94.9625 8.85806C94.7486 8.58115 94.4591 8.36089 94.0941 8.19727C93.7416 8.03364 93.3326 7.95183 92.8669 7.95183C92.6781 7.95183 92.4704 7.977 92.2438 8.02735C92.0299 8.06511 91.8411 8.15951 91.6774 8.31054C91.5138 8.449 91.432 8.67555 91.432 8.99022C91.432 9.27971 91.5264 9.51256 91.7152 9.68877C91.904 9.8524 92.1557 9.99085 92.4704 10.1041C92.7976 10.2048 93.1438 10.3055 93.5088 10.4062C93.8864 10.5069 94.2703 10.6265 94.6604 10.7649C95.0506 10.9034 95.4093 11.0859 95.7366 11.3124C96.0638 11.539 96.3282 11.8348 96.5295 12.1998C96.7309 12.5522 96.8316 13.0053 96.8316 13.5591C96.8316 14.201 96.6428 14.7486 96.2652 15.2017C95.8876 15.6548 95.4156 16.0009 94.8492 16.2401C94.2829 16.4666 93.7039 16.5799 93.1123 16.5799C92.3697 16.5799 91.6271 16.454 90.8845 16.2023C90.1419 15.938 89.5251 15.4786 89.0343 14.8241Z" fill="white"/>
</svg>
