<svg width="70" height="19" viewBox="0 0 70 19" fill="none" xmlns="http://www.w3.org/2000/svg">
<path d="M24.582 17.284V0.744385H27.6064L35.3801 12.393V0.744385H38.4045V17.284H35.3801L27.6064 5.65903V17.284H24.582Z" fill="white"/>
<path d="M46.0529 17.5676C44.8715 17.5676 43.824 17.3155 42.9104 16.8115C41.9968 16.3074 41.2801 15.5986 40.7603 14.685C40.2404 13.7713 39.9805 12.7159 39.9805 11.5188C39.9805 10.3059 40.2326 9.22687 40.7366 8.28174C41.2564 7.33662 41.9653 6.60415 42.8632 6.08433C43.7768 5.54876 44.8479 5.28098 46.0766 5.28098C47.2265 5.28098 48.2425 5.53301 49.1246 6.03708C50.0067 6.54114 50.6919 7.23423 51.1802 8.11635C51.6843 8.98271 51.9363 9.95146 51.9363 11.0226C51.9363 11.1959 51.9285 11.377 51.9127 11.566C51.9127 11.7551 51.9048 11.952 51.8891 12.1567H42.9813C43.0443 13.0704 43.3593 13.7871 43.9264 14.3069C44.5092 14.8267 45.2102 15.0866 46.0293 15.0866C46.6436 15.0866 47.1556 14.9527 47.5651 14.685C47.9904 14.4014 48.3055 14.0391 48.5103 13.5981H51.5819C51.3614 14.3384 50.9912 15.0157 50.4714 15.6301C49.9673 16.2287 49.3372 16.7012 48.5812 17.0478C47.8408 17.3943 46.9981 17.5676 46.0529 17.5676ZM46.0766 7.7383C45.3362 7.7383 44.6825 7.95095 44.1154 8.37626C43.5484 8.78581 43.1861 9.41589 43.0286 10.2665H48.8647C48.8174 9.49465 48.5339 8.88032 48.0141 8.42351C47.4943 7.9667 46.8484 7.7383 46.0766 7.7383Z" fill="white"/>
<path d="M51.3805 17.284L55.6336 11.4243L51.3805 5.56451H54.6176L57.5947 9.72306L60.5482 5.56451H63.8089L59.5322 11.4243L63.8089 17.284H60.5482L57.5947 13.1255L54.6176 17.284H51.3805Z" fill="white"/>
<path d="M69.7761 17.284C68.5474 17.284 67.5629 16.9848 66.8226 16.3862C66.0822 15.7876 65.7121 14.7243 65.7121 13.1964V8.09272H63.7037V5.56451H65.7121L66.0665 2.42198H68.7365V5.56451H71.9026V8.09272H68.7365V13.22C68.7365 13.7871 68.8546 14.1809 69.0909 14.4014C69.3429 14.6062 69.7682 14.7086 70.3668 14.7086H71.8317V17.284H69.7761Z" fill="white"/>
<path d="M73.3179 17.284V5.56451H75.9879L76.2478 7.1476C76.6258 6.58052 77.122 6.13159 77.7364 5.8008C78.3664 5.45425 79.091 5.28098 79.9101 5.28098C81.7216 5.28098 83.0054 5.98194 83.7615 7.38388C84.1868 6.73804 84.7539 6.2261 85.4627 5.84805C86.1873 5.47 86.9749 5.28098 87.8256 5.28098C89.3535 5.28098 90.527 5.73779 91.3461 6.65141C92.1652 7.56503 92.5748 8.90395 92.5748 10.6682V17.284H89.5504V10.9517C89.5504 9.94359 89.3535 9.17173 88.9597 8.63617C88.5817 8.1006 87.991 7.83281 87.1876 7.83281C86.3685 7.83281 85.7069 8.1321 85.2028 8.73068C84.7145 9.32926 84.4704 10.1641 84.4704 11.2353V17.284H81.446V10.9517C81.446 9.94359 81.2491 9.17173 80.8553 8.63617C80.4615 8.1006 79.855 7.83281 79.0359 7.83281C78.2326 7.83281 77.5788 8.1321 77.0748 8.73068C76.5865 9.32926 76.3423 10.1641 76.3423 11.2353V17.284H73.3179Z" fill="white"/>
<path d="M99.8882 17.5676C98.7541 17.5676 97.7302 17.3077 96.8166 16.7879C95.9187 16.268 95.202 15.5513 94.6664 14.6377C94.1466 13.7083 93.8867 12.6372 93.8867 11.4243C93.8867 10.2114 94.1545 9.14811 94.6901 8.23449C95.2256 7.30512 95.9424 6.58052 96.8402 6.0607C97.7538 5.54089 98.7777 5.28098 99.9119 5.28098C101.03 5.28098 102.038 5.54089 102.936 6.0607C103.85 6.58052 104.567 7.30512 105.086 8.23449C105.622 9.14811 105.89 10.2114 105.89 11.4243C105.89 12.6372 105.622 13.7083 105.086 14.6377C104.567 15.5513 103.85 16.268 102.936 16.7879C102.023 17.3077 101.007 17.5676 99.8882 17.5676ZM99.8882 14.9449C100.676 14.9449 101.361 14.6535 101.944 14.0706C102.527 13.472 102.818 12.5899 102.818 11.4243C102.818 10.2586 102.527 9.38439 101.944 8.80156C101.361 8.20298 100.684 7.9037 99.9119 7.9037C99.1085 7.9037 98.4154 8.20298 97.8326 8.80156C97.2655 9.38439 96.982 10.2586 96.982 11.4243C96.982 12.5899 97.2655 13.472 97.8326 14.0706C98.4154 14.6535 99.1006 14.9449 99.8882 14.9449Z" fill="white"/>
<path d="M110.002 17.284L105.701 5.56451H108.868L111.845 14.425L114.822 5.56451H117.988L113.664 17.284H110.002Z" fill="white"/>
<path d="M123.832 17.5676C122.65 17.5676 121.603 17.3155 120.689 16.8115C119.776 16.3074 119.059 15.5986 118.539 14.685C118.019 13.7713 117.759 12.7159 117.759 11.5188C117.759 10.3059 118.011 9.22687 118.515 8.28174C119.035 7.33662 119.744 6.60415 120.642 6.08433C121.556 5.54876 122.627 5.28098 123.855 5.28098C125.005 5.28098 126.021 5.53301 126.903 6.03708C127.786 6.54114 128.471 7.23423 128.959 8.11635C129.463 8.98271 129.715 9.95146 129.715 11.0226C129.715 11.1959 129.707 11.377 129.692 11.566C129.692 11.7551 129.684 11.952 129.668 12.1567H120.76C120.823 13.0704 121.138 13.7871 121.705 14.3069C122.288 14.8267 122.989 15.0866 123.808 15.0866C124.423 15.0866 124.934 14.9527 125.344 14.685C125.769 14.4014 126.084 14.0391 126.289 13.5981H129.361C129.14 14.3384 128.77 15.0157 128.25 15.6301C127.746 16.2287 127.116 16.7012 126.36 17.0478C125.62 17.3943 124.777 17.5676 123.832 17.5676ZM123.855 7.7383C123.115 7.7383 122.461 7.95095 121.894 8.37626C121.327 8.78581 120.965 9.41589 120.807 10.2665H126.644C126.596 9.49465 126.313 8.88032 125.793 8.42351C125.273 7.9667 124.627 7.7383 123.855 7.7383Z" fill="white"/>
<path d="M9.66887 0.422765V7.89973C9.66887 8.75313 8.97706 9.44495 8.12366 9.44495L0.646688 9.44495L0.646689 6.35452H4.38902L0.457031 2.42253L2.64229 0.237274L6.57845 4.17343L6.57845 0.422764L9.66887 0.422765Z" fill="white"/>
<path d="M18.7967 9.55091H11.3197C10.4663 9.55091 9.7745 10.2427 9.7745 11.0961V18.5731L12.8649 18.5731L12.8649 14.8304L16.7972 18.7627L18.9825 16.5774L15.0464 12.6413H18.7967V9.55091Z" fill="white"/>
</svg>
