<svg width="78" height="31" viewBox="0 0 78 31" fill="none" xmlns="http://www.w3.org/2000/svg">
<path d="M-15.2351 8.41862C-13.9829 8.41862 -12.899 8.62733 -11.9834 9.04473C-11.0544 9.46213 -10.3407 10.0546 -9.84256 10.822C-9.34437 11.5895 -9.09528 12.4984 -9.09528 13.5486C-9.09528 14.5854 -9.34437 15.4942 -9.84256 16.2752C-10.3407 17.0427 -11.0544 17.6351 -11.9834 18.0525C-12.899 18.4564 -13.9829 18.6584 -15.2351 18.6584H-18.0829V22.5564H-21.3547V8.41862H-15.2351ZM-15.4169 15.9924C-14.434 15.9924 -13.6867 15.7837 -13.175 15.3663C-12.6634 14.9355 -12.4076 14.3296 -12.4076 13.5486C-12.4076 12.7542 -12.6634 12.1483 -13.175 11.7309C-13.6867 11.3 -14.434 11.0846 -15.4169 11.0846H-18.0829V15.9924H-15.4169Z" fill="white"/>
<path d="M-4.98207 13.1245C-4.60507 12.5994 -4.10015 12.2022 -3.46732 11.9329C-2.82102 11.6636 -2.08047 11.5289 -1.24567 11.5289V14.4373C-1.59575 14.4103 -1.83137 14.3969 -1.95255 14.3969C-2.85468 14.3969 -3.56157 14.6527 -4.07322 15.1644C-4.58487 15.6625 -4.8407 16.4166 -4.8407 17.4264V22.5564H-7.9914V11.6905H-4.98207V13.1245Z" fill="white"/>
<path d="M4.68967 22.718C3.54518 22.718 2.51515 22.4823 1.59956 22.0111C0.697433 21.5263 -0.00945663 20.8599 -0.521109 20.0116C-1.03276 19.1633 -1.28859 18.2006 -1.28859 17.1234C-1.28859 16.0463 -1.03276 15.0836 -0.521109 14.2353C-0.00945663 13.387 0.697433 12.7273 1.59956 12.256C2.51515 11.7713 3.54518 11.5289 4.68967 11.5289C5.83415 11.5289 6.85746 11.7713 7.75958 12.256C8.66171 12.7273 9.36859 13.387 9.88025 14.2353C10.3919 15.0836 10.6477 16.0463 10.6477 17.1234C10.6477 18.2006 10.3919 19.1633 9.88025 20.0116C9.36859 20.8599 8.66171 21.5263 7.75958 22.0111C6.85746 22.4823 5.83415 22.718 4.68967 22.718ZM4.68967 20.1328C5.49754 20.1328 6.1573 19.8635 6.66895 19.3249C7.19407 18.7729 7.45663 18.039 7.45663 17.1234C7.45663 16.2079 7.19407 15.4808 6.66895 14.9422C6.1573 14.3901 5.49754 14.1141 4.68967 14.1141C3.8818 14.1141 3.2153 14.3901 2.69018 14.9422C2.16507 15.4808 1.90251 16.2079 1.90251 17.1234C1.90251 18.039 2.16507 18.7729 2.69018 19.3249C3.2153 19.8635 3.8818 20.1328 4.68967 20.1328Z" fill="white"/>
<path d="M24.9324 8.41862V22.5564H22.2462L15.1975 13.9727V22.5564H11.966V8.41862H14.6724L21.7009 17.0023V8.41862H24.9324Z" fill="white"/>
<path d="M31.428 11.5289C33.1111 11.5289 34.4037 11.9329 35.3058 12.7407C36.2079 13.5351 36.659 14.7402 36.659 16.356V22.5564H33.7103V21.2032C33.1178 22.213 32.0137 22.718 30.398 22.718C29.5632 22.718 28.8361 22.5766 28.2167 22.2938C27.6108 22.0111 27.1463 21.6206 26.8232 21.1224C26.5 20.6242 26.3384 20.0587 26.3384 19.4259C26.3384 18.416 26.7154 17.6216 27.4694 17.0427C28.2369 16.4637 29.4151 16.1742 31.0039 16.1742H33.5083C33.5083 15.4875 33.2996 14.9624 32.8822 14.5988C32.4648 14.2218 31.8387 14.0333 31.0039 14.0333C30.4249 14.0333 29.8527 14.1276 29.2872 14.3161C28.7351 14.4911 28.2639 14.7335 27.8734 15.0432L26.7424 12.8417C27.3348 12.4243 28.0417 12.1012 28.863 11.8723C29.6978 11.6434 30.5528 11.5289 31.428 11.5289ZM31.1857 20.5973C31.7242 20.5973 32.2022 20.4761 32.6196 20.2338C33.037 19.9779 33.3333 19.6077 33.5083 19.1229V18.0121H31.3472C30.0546 18.0121 29.4083 18.4362 29.4083 19.2845C29.4083 19.6884 29.5632 20.0116 29.8729 20.254C30.196 20.4828 30.6336 20.5973 31.1857 20.5973Z" fill="white"/>
<path d="M45.509 22.0313C45.1993 22.2602 44.8156 22.4352 44.3578 22.5564C43.9134 22.6641 43.4422 22.718 42.944 22.718C41.6514 22.718 40.6483 22.3881 39.9347 21.7283C39.2345 21.0686 38.8844 20.0991 38.8844 18.82V14.3565H37.2081V11.9329H38.8844V9.28709H42.0351V11.9329H44.7415V14.3565H42.0351V18.7796C42.0351 19.2374 42.1496 19.5942 42.3785 19.85C42.6208 20.0924 42.9575 20.2136 43.3883 20.2136C43.8865 20.2136 44.3106 20.0789 44.6607 19.8096L45.509 22.0313Z" fill="white"/>
<path d="M57.2144 11.6905V22.5564H54.2253V21.2638C53.8079 21.7351 53.3097 22.0986 52.7308 22.3544C52.1518 22.5968 51.5257 22.718 50.8524 22.718C49.4252 22.718 48.2942 22.3073 47.4594 21.486C46.6246 20.6646 46.2072 19.4461 46.2072 17.8303V11.6905H49.3579V17.3658C49.3579 19.1162 50.0917 19.9914 51.5593 19.9914C52.3134 19.9914 52.9193 19.749 53.3771 19.2643C53.8348 18.7661 54.0637 18.0323 54.0637 17.0629V11.6905H57.2144Z" fill="white"/>
<path d="M62.1328 13.1245C62.5098 12.5994 63.0148 12.2022 63.6476 11.9329C64.2939 11.6636 65.0345 11.5289 65.8693 11.5289V14.4373C65.5192 14.4103 65.2835 14.3969 65.1624 14.3969C64.2602 14.3969 63.5533 14.6527 63.0417 15.1644C62.53 15.6625 62.2742 16.4166 62.2742 17.4264V22.5564H59.1235V11.6905H62.1328V13.1245Z" fill="white"/>
<path d="M77.2779 17.1638C77.2779 17.2042 77.2577 17.487 77.2173 18.0121H68.9972C69.1453 18.6853 69.4954 19.2172 70.0475 19.6077C70.5995 19.9981 71.2862 20.1934 72.1075 20.1934C72.673 20.1934 73.1712 20.1126 73.6021 19.951C74.0464 19.776 74.4571 19.5067 74.8341 19.1431L76.5104 20.9608C75.4871 22.1323 73.9926 22.718 72.0267 22.718C70.8015 22.718 69.7176 22.4823 68.7751 22.0111C67.8325 21.5263 67.1055 20.8599 66.5938 20.0116C66.0822 19.1633 65.8263 18.2006 65.8263 17.1234C65.8263 16.0597 66.0754 15.1038 66.5736 14.2555C67.0853 13.3938 67.7787 12.7273 68.6539 12.256C69.5425 11.7713 70.5322 11.5289 71.6228 11.5289C72.6865 11.5289 73.6492 11.7578 74.511 12.2156C75.3727 12.6734 76.0459 13.3332 76.5306 14.1949C77.0288 15.0432 77.2779 16.0328 77.2779 17.1638ZM71.643 13.9122C70.9294 13.9122 70.3302 14.1141 69.8455 14.5181C69.3608 14.922 69.0646 15.474 68.9568 16.1742H74.309C74.2013 15.4875 73.9051 14.9422 73.4203 14.5383C72.9356 14.1209 72.3432 13.9122 71.643 13.9122Z" fill="white"/>
</svg>
