<svg width="79" height="21" viewBox="0 0 79 21" fill="none" xmlns="http://www.w3.org/2000/svg">
<path d="M42.0593 10.2195C41.5699 10.6953 41.3252 11.3886 41.3252 12.2994V17.9887H38.0625V6.81403H40.6523V10.5017C40.7763 9.44907 41.089 8.6005 41.5903 7.95597C42.27 7.09952 43.2488 6.67129 44.5267 6.67129H44.9549V9.48535H44.1393C43.242 9.48535 42.5487 9.73005 42.0593 10.2195Z" fill="white"/>
<path fill-rule="evenodd" clip-rule="evenodd" d="M51.9491 16.6225C52.0893 16.3848 52.2048 16.1227 52.2958 15.8359V17.9887H54.8855V11.1371C54.8855 10.1039 54.6816 9.26104 54.2738 8.6085C53.866 7.94237 53.2678 7.44618 52.4793 7.11991C51.7044 6.79364 50.746 6.63051 49.6041 6.63051C49.2098 6.63051 48.7884 6.6373 48.3398 6.6509C47.8912 6.66449 47.4562 6.68488 47.0347 6.71207C46.6133 6.73926 46.2462 6.76645 45.9336 6.79364V9.54652C46.355 9.51933 46.824 9.49215 47.3406 9.46496C47.8572 9.43777 48.3602 9.41738 48.8496 9.40378C49.339 9.39019 49.7332 9.38339 50.0323 9.38339C50.6305 9.38339 51.0655 9.52613 51.3374 9.81162C51.6093 10.0971 51.7452 10.5253 51.7452 11.0963V11.1371H49.7264C48.734 11.1371 47.8572 11.2662 47.0959 11.5245C46.3346 11.7692 45.7432 12.1567 45.3218 12.6868C44.9004 13.2034 44.6897 13.8696 44.6897 14.6852C44.6897 15.4329 44.8596 16.0787 45.1995 16.6225C45.5393 17.1526 46.0083 17.5605 46.6065 17.846C47.2183 18.1314 47.9252 18.2742 48.7272 18.2742C49.5021 18.2742 50.1547 18.1314 50.6848 17.846C51.2286 17.5605 51.6501 17.1526 51.9491 16.6225ZM51.4189 15.1542C51.6093 14.8416 51.718 14.4066 51.7452 13.8492V12.9519H49.706C49.1351 12.9519 48.6933 13.0947 48.3806 13.3802C48.0815 13.6521 47.932 14.0259 47.932 14.5017C47.932 14.9503 48.0815 15.3174 48.3806 15.6029C48.6933 15.8748 49.1351 16.0107 49.706 16.0107C50.0731 16.0107 50.3994 15.9495 50.6848 15.8272C50.9839 15.6912 51.2286 15.4669 51.4189 15.1542Z" fill="white"/>
<path d="M61.6505 18.3761C60.6853 18.3761 59.8424 18.2198 59.1219 17.9071C58.415 17.5809 57.8236 17.1458 57.3478 16.6021C56.872 16.0583 56.5186 15.4465 56.2875 14.7668C56.0564 14.0735 55.9408 13.3598 55.9408 12.6257V12.2382C55.9408 11.4769 56.0632 10.7496 56.3079 10.0563C56.5526 9.3494 56.9128 8.72406 57.3886 8.18028C57.8644 7.6365 58.4558 7.20827 59.1627 6.8956C59.8832 6.58293 60.7057 6.42659 61.6301 6.42659C62.6361 6.42659 63.5265 6.62371 64.3014 7.01795C65.0763 7.39859 65.6949 7.93558 66.1571 8.6289C66.6193 9.32221 66.8776 10.1175 66.9319 11.0147H63.7304C63.6761 10.5117 63.4722 10.0903 63.1187 9.75044C62.7788 9.39698 62.2826 9.22026 61.6301 9.22026C61.0863 9.22026 60.6309 9.3562 60.2639 9.62809C59.9104 9.89998 59.6453 10.2738 59.4686 10.7496C59.2919 11.2254 59.2035 11.7896 59.2035 12.4421C59.2035 13.0403 59.2851 13.5841 59.4482 14.0735C59.6113 14.5493 59.8696 14.9231 60.2231 15.195C60.5901 15.4533 61.0659 15.5825 61.6505 15.5825C62.0855 15.5825 62.4526 15.5077 62.7516 15.3582C63.0643 15.195 63.309 14.9775 63.4857 14.7056C63.6761 14.4201 63.7916 14.0939 63.8324 13.7268H67.0135C66.9727 14.6513 66.7144 15.4669 66.2386 16.1738C65.7628 16.8672 65.1307 17.4109 64.3422 17.8052C63.5537 18.1858 62.6565 18.3761 61.6505 18.3761Z" fill="white"/>
<path fill-rule="evenodd" clip-rule="evenodd" d="M70.6703 17.8867C71.4044 18.213 72.2473 18.3761 73.1989 18.3761C74.1369 18.3761 74.9662 18.213 75.6867 17.8867C76.4072 17.5605 77.0054 17.1051 77.4812 16.5205C77.957 15.9359 78.2764 15.2698 78.4396 14.5221H75.442C75.306 14.862 75.0477 15.1475 74.6671 15.3786C74.2865 15.6097 73.7971 15.7252 73.1989 15.7252C72.5464 15.7252 72.0162 15.5893 71.6083 15.3174C71.2005 15.0455 70.9014 14.6648 70.7111 14.1754C70.605 13.8949 70.5284 13.5891 70.4815 13.2578H78.6435V12.1567C78.6435 11.1371 78.426 10.1991 77.991 9.34261C77.5559 8.47256 76.9238 7.77244 76.0945 7.24226C75.2789 6.69848 74.2729 6.42659 73.0765 6.42659C72.1657 6.42659 71.3501 6.58972 70.6295 6.91599C69.9226 7.22866 69.3313 7.65689 68.8555 8.20067C68.3797 8.74445 68.0126 9.363 67.7543 10.0563C67.5096 10.736 67.3873 11.4498 67.3873 12.1974V12.6053C67.3873 13.3258 67.5096 14.0327 67.7543 14.726C68.0126 15.4057 68.3797 16.0243 68.8555 16.5817C69.3449 17.1254 69.9498 17.5605 70.6703 17.8867ZM70.5065 11.4022C70.5574 11.1098 70.6324 10.8447 70.7315 10.6069C70.9354 10.1039 71.2345 9.72325 71.6287 9.46496C72.023 9.20666 72.5056 9.07751 73.0765 9.07751C73.6339 9.07751 74.0961 9.20666 74.4632 9.46496C74.8438 9.70966 75.1293 10.0699 75.3196 10.5457C75.4227 10.8033 75.4978 11.0888 75.5451 11.4022H70.5065Z" fill="white"/>
<path d="M30.2941 17.9887V6.01875H26.1138V3.10274H37.839V6.01875H33.6383V17.9887H30.2941Z" fill="white"/>
<path fill-rule="evenodd" clip-rule="evenodd" d="M10.8773 2.07972C6.22697 2.07972 2.4571 5.84959 2.4571 10.5C2.4571 15.1503 6.22697 18.9202 10.8773 18.9202C15.5277 18.9202 19.2976 15.1503 19.2976 10.5C19.2976 5.84959 15.5277 2.07972 10.8773 2.07972ZM0.585938 10.5C0.585938 4.81617 5.19355 0.208557 10.8773 0.208557C16.5611 0.208557 21.1687 4.81617 21.1687 10.5C21.1687 16.1837 16.5611 20.7913 10.8773 20.7913C5.19355 20.7913 0.585938 16.1837 0.585938 10.5Z" fill="white"/>
<path fill-rule="evenodd" clip-rule="evenodd" d="M16.0114 7.01086C16.2857 6.14692 15.4664 5.3355 14.6051 5.6181L8.73864 7.54304C8.39905 7.65447 8.13374 7.92236 8.0256 8.26301L6.20781 13.989C5.93355 14.853 6.75285 15.6644 7.6141 15.3818L13.4806 13.4568C13.8202 13.3454 14.0855 13.0775 14.1936 12.7369L16.0114 7.01086ZM11.1085 11.8365C11.8467 11.8365 12.4451 11.2381 12.4451 10.4999C12.4451 9.76178 11.8467 9.16339 11.1085 9.16339C10.3704 9.16339 9.772 9.76178 9.772 10.4999C9.772 11.2381 10.3704 11.8365 11.1085 11.8365Z" fill="white"/>
</svg>
