<svg width="109" height="23" viewBox="0 0 109 23" fill="none" xmlns="http://www.w3.org/2000/svg">
<path d="M88.5062 1.3336V21.4092H91.4444V1.3336H88.5062Z" fill="white"/>
<path fill-rule="evenodd" clip-rule="evenodd" d="M61.9382 21.7332C60.7788 21.7332 59.8102 21.4632 59.0324 20.9231C58.9473 20.864 58.8645 20.8026 58.784 20.7388V21.4092H56.1915V1.65766H59.1513V10.1192C59.8773 9.65233 60.7559 9.4189 61.787 9.4189C62.9032 9.4189 63.8754 9.68535 64.7035 10.2183C65.5317 10.7512 66.1726 11.4821 66.6263 12.4111C67.0872 13.3329 67.3176 14.3878 67.3176 15.5761C67.3176 16.7427 67.0908 17.7905 66.6371 18.7195C66.1906 19.6484 65.5641 20.383 64.7575 20.9231C63.951 21.4632 63.0112 21.7332 61.9382 21.7332ZM59.0432 13.7181C58.8704 14.251 58.784 14.8703 58.784 15.5761C58.784 16.2818 58.8704 16.9011 59.0432 17.434C59.2161 17.9669 59.4969 18.381 59.8858 18.6763C60.2819 18.9715 60.8076 19.1191 61.4629 19.1191C62.0966 19.1191 62.6151 18.9607 63.0184 18.6438C63.4217 18.327 63.7205 17.9021 63.915 17.3692C64.1094 16.8291 64.2066 16.2314 64.2066 15.5761C64.2066 14.928 64.1058 14.3374 63.9042 13.8045C63.7025 13.2644 63.3893 12.836 62.9644 12.5191C62.5467 12.195 62.0102 12.033 61.3549 12.033C60.7428 12.033 60.2459 12.1806 59.8642 12.4759C59.4897 12.7711 59.2161 13.1852 59.0432 13.7181Z" fill="white"/>
<path d="M51.5463 14.5175V21.4092H54.4844V13.7397C54.4844 12.4651 54.1424 11.4353 53.4582 10.6503C52.7813 9.85818 51.7767 9.46211 50.4444 9.46211C49.6667 9.46211 48.9574 9.63494 48.3164 9.98061C47.7297 10.294 47.2509 10.7247 46.8802 11.2727C46.6038 10.7754 46.222 10.3663 45.7347 10.0454C45.1514 9.65654 44.4025 9.46211 43.4879 9.46211C42.6886 9.46211 41.9648 9.63854 41.3167 9.99141C40.8269 10.2611 40.4128 10.6043 40.0745 11.0211V9.74296H37.482V21.4092H40.4417V14.3446C40.4417 13.6749 40.6254 13.1312 40.9926 12.7135C41.3671 12.2886 41.8604 12.0762 42.4725 12.0762C43.1134 12.0762 43.6139 12.2923 43.974 12.7243C44.3413 13.1492 44.5249 13.7469 44.5249 14.5175V21.4092H47.4631V14.3446C47.4631 13.8982 47.5459 13.5057 47.7115 13.1672C47.8844 12.8216 48.122 12.5551 48.4245 12.3679C48.7269 12.1734 49.0834 12.0762 49.4939 12.0762C50.1348 12.0762 50.6353 12.2923 50.9954 12.7243C51.3626 13.1492 51.5463 13.7469 51.5463 14.5175Z" fill="white"/>
<path d="M26.9555 21.2903C27.5316 21.6 28.277 21.7548 29.1915 21.7548C30.3366 21.7548 31.2835 21.5064 32.0325 21.0095C32.3879 20.7759 32.7012 20.5082 32.9723 20.2062V21.4092H35.5648V9.74296H32.605V15.6625C32.605 16.3826 32.5222 16.9659 32.3565 17.4124C32.1981 17.8517 31.9929 18.1866 31.7408 18.417C31.4888 18.6402 31.2187 18.7915 30.9307 18.8707C30.6426 18.9499 30.3726 18.9895 30.1205 18.9895C29.494 18.9895 29.0079 18.8491 28.6622 18.5682C28.3238 18.2874 28.0789 17.9381 27.9277 17.5204C27.7765 17.1028 27.6864 16.6887 27.6576 16.2782C27.6288 15.8605 27.6144 15.5185 27.6144 15.252V9.74296H24.6331V16.289C24.6331 16.4834 24.6475 16.7931 24.6763 17.218C24.7051 17.6429 24.7879 18.1145 24.9247 18.633C25.0615 19.1443 25.2884 19.6376 25.6052 20.1129C25.9293 20.5882 26.3794 20.9807 26.9555 21.2903Z" fill="white"/>
<path d="M68.6144 9.74296V21.4092H71.5742V15.4465C71.5742 15 71.6354 14.6003 71.7578 14.2474C71.8802 13.8874 72.0603 13.5777 72.2979 13.3184C72.5355 13.052 72.8272 12.8396 73.1729 12.6811C73.5185 12.5155 73.9038 12.4183 74.3287 12.3895C74.7608 12.3535 75.1388 12.3859 75.4629 12.4867V9.74296C75.11 9.69975 74.7572 9.69255 74.4043 9.72136C74.0514 9.74296 73.7094 9.80417 73.3781 9.90499C73.0468 9.99861 72.7408 10.1318 72.4599 10.3047C72.0927 10.5207 71.783 10.7944 71.5309 11.1256C71.4116 11.2824 71.3036 11.4473 71.2069 11.6203V9.74296H68.6144Z" fill="white"/>
<path fill-rule="evenodd" clip-rule="evenodd" d="M81.6491 21.7332C80.4537 21.7332 79.3987 21.4776 78.4841 20.9663C77.5767 20.4478 76.8638 19.7385 76.3453 18.8383C75.834 17.9309 75.5784 16.8939 75.5784 15.7273C75.5784 14.4527 75.8304 13.3437 76.3345 12.4003C76.8386 11.4569 77.5335 10.7259 78.4193 10.2074C79.3051 9.68175 80.3241 9.4189 81.4763 9.4189C82.7005 9.4189 83.7411 9.70695 84.5981 10.2831C85.455 10.8592 86.0888 11.6693 86.4992 12.7135C86.9097 13.7577 87.0538 14.9856 86.9313 16.397H78.7397C78.8315 17.0972 79.0487 17.6661 79.3915 18.1037C79.8668 18.6943 80.5617 18.9895 81.4763 18.9895C82.0524 18.9895 82.5457 18.8635 82.9562 18.6114C83.3666 18.3594 83.6799 17.9957 83.896 17.5204L86.8341 18.363C86.3948 19.4288 85.6999 20.257 84.7493 20.8475C83.8059 21.438 82.7725 21.7332 81.6491 21.7332ZM83.4531 12.7567C83.7042 13.0979 83.8727 13.584 83.9586 14.215H78.817C78.9315 13.6762 79.123 13.2333 79.3915 12.8864C79.8668 12.2742 80.6049 11.9682 81.6059 11.9682C82.4629 11.9682 83.0786 12.231 83.4531 12.7567Z" fill="white"/>
<path d="M93.8187 21.4092V1.3336H96.7568V21.4092H93.8187Z" fill="white"/>
<path fill-rule="evenodd" clip-rule="evenodd" d="M100.028 21.2579C100.611 21.5748 101.32 21.7332 102.156 21.7332C103.164 21.7332 103.996 21.5604 104.651 21.2147C105.173 20.9365 105.667 20.524 106.131 19.9771V21.4092H108.702V14.2798C108.702 13.7469 108.68 13.2644 108.637 12.8324C108.594 12.4003 108.457 11.9682 108.226 11.5361C107.816 10.7584 107.211 10.2111 106.412 9.89419C105.612 9.57733 104.698 9.4189 103.668 9.4189C102.264 9.4189 101.155 9.72136 100.341 10.3263C99.5272 10.9312 98.9727 11.7161 98.6774 12.6811L101.335 13.5237C101.522 12.9908 101.85 12.6199 102.318 12.4111C102.786 12.2022 103.236 12.0978 103.668 12.0978C104.446 12.0978 105 12.2598 105.331 12.5839C105.592 12.8384 105.75 13.2061 105.805 13.6871C105.308 13.7624 104.837 13.8339 104.392 13.9018C103.636 14.0098 102.959 14.125 102.361 14.2474C101.763 14.3698 101.248 14.5103 100.816 14.6687C100.19 14.8991 99.6892 15.1872 99.3147 15.5329C98.9474 15.8713 98.681 16.2638 98.5154 16.7103C98.3497 17.1568 98.2669 17.6501 98.2669 18.1902C98.2669 18.8383 98.4146 19.4324 98.7098 19.9725C99.0123 20.5054 99.4516 20.9339 100.028 21.2579ZM104.143 19.1407C103.776 19.328 103.322 19.4216 102.782 19.4216C102.444 19.4216 102.152 19.3712 101.907 19.2704C101.662 19.1695 101.472 19.0255 101.335 18.8383C101.205 18.6438 101.14 18.4134 101.14 18.1469C101.14 17.9525 101.18 17.7761 101.259 17.6177C101.346 17.4592 101.475 17.3152 101.648 17.1856C101.828 17.0487 102.062 16.9227 102.35 16.8075C102.602 16.7139 102.894 16.6275 103.225 16.5483C103.556 16.469 103.992 16.3826 104.532 16.289C104.879 16.2242 105.295 16.1505 105.779 16.0679C105.772 16.2733 105.76 16.5054 105.742 16.7643C105.72 17.182 105.634 17.5492 105.483 17.8661C105.404 18.0317 105.252 18.237 105.029 18.4818C104.813 18.7267 104.518 18.9463 104.143 19.1407Z" fill="white"/>
<path fill-rule="evenodd" clip-rule="evenodd" d="M8.41846 9.82709H0.439697V13.3017C0.439697 18.4901 4.64569 22.6961 9.83405 22.6961C15.0224 22.6961 19.2284 18.4901 19.2284 13.3017V9.82709H10.9922L10.9923 4.29343C10.9923 2.09015 9.20615 0.304047 7.00287 0.304047C4.7996 0.304046 3.01349 2.09015 3.01349 4.29343L5.58729 4.29343C5.58729 3.51162 6.22107 2.87784 7.00287 2.87784C7.78468 2.87784 8.41846 3.51162 8.41846 4.29343L8.41846 9.82709ZM8.41845 12.4009L8.41845 17.2911L10.9922 17.2911L10.9922 12.4009H16.6546V13.3017C16.6546 17.0686 13.6009 20.1223 9.83405 20.1223C6.06716 20.1223 3.01349 17.0686 3.01349 13.3017V12.4009H8.41845Z" fill="white"/>
</svg>
