<svg width="101" height="23" viewBox="0 0 101 23" fill="none" xmlns="http://www.w3.org/2000/svg">
<path d="M34.7107 21.5725C32.4059 21.5725 30.6082 20.9349 29.3175 19.6595C28.0422 18.3842 27.4045 16.5635 27.4045 14.1972V5.16251H31.1383V14.0589C31.1383 16.9476 32.3368 18.3919 34.7337 18.3919C35.9015 18.3919 36.7927 18.0462 37.4073 17.3548C38.0219 16.648 38.3292 15.5494 38.3292 14.0589V5.16251H42.0168V14.1972C42.0168 16.5635 41.3715 18.3842 40.0808 19.6595C38.8055 20.9349 37.0155 21.5725 34.7107 21.5725Z" fill="white"/>
<path d="M43.8396 13.3675H50.3621V16.2485H43.8396V13.3675Z" fill="white"/>
<path d="M54.8013 8.20481H49.6386V5.16251H63.6977V8.20481H58.535V21.2959H54.8013V8.20481Z" fill="white"/>
<path d="M76.5225 8.89624V21.2959H73.1115V19.8209C72.6352 20.3587 72.0667 20.7735 71.4059 21.0655C70.7452 21.342 70.0308 21.4803 69.2625 21.4803C67.6338 21.4803 66.3431 21.0117 65.3905 20.0744C64.4378 19.1371 63.9615 17.7466 63.9615 15.9028V8.89624H67.557V15.3727C67.557 17.3701 68.3944 18.3689 70.0692 18.3689C70.9296 18.3689 71.6211 18.0923 72.1435 17.5392C72.6659 16.9706 72.9271 16.1332 72.9271 15.0269V8.89624H76.5225Z" fill="white"/>
<path d="M82.1352 10.5326C82.5654 9.93339 83.1416 9.48012 83.8638 9.17282C84.6013 8.86551 85.4464 8.71186 86.3991 8.71186V12.0307C85.9996 12 85.7307 11.9846 85.5924 11.9846C84.5629 11.9846 83.7562 12.2766 83.1724 12.8605C82.5885 13.429 82.2966 14.2894 82.2966 15.4418V21.2959H78.7011V8.89624H82.1352V10.5326Z" fill="white"/>
<path d="M94.9211 8.71186C96.4577 8.71186 97.6946 9.17282 98.6318 10.0947C99.5845 11.0166 100.061 12.3841 100.061 14.1972V21.2959H96.4653V14.7504C96.4653 13.767 96.2502 13.0372 95.82 12.5608C95.3898 12.0691 94.7675 11.8233 93.9531 11.8233C93.0466 11.8233 92.3244 12.1076 91.7867 12.6761C91.2489 13.2292 90.98 14.0589 90.98 15.1652V21.2959H87.3845V8.89624H90.8186V10.3483C91.295 9.82583 91.8865 9.42634 92.5933 9.14977C93.3001 8.85783 94.0761 8.71186 94.9211 8.71186Z" fill="white"/>
<path fill-rule="evenodd" clip-rule="evenodd" d="M11.3416 0.96926C11.9548 0.356113 12.9489 0.356113 13.562 0.96926L19.3039 6.7111L13.5359 12.2169C12.9087 12.8156 11.9148 12.7925 11.3161 12.1652C10.7174 11.538 10.7405 10.5442 11.3677 9.94544L13.1386 8.25504H9.3117C6.24787 8.25504 3.76415 10.7388 3.76415 13.8026C3.76415 16.8664 6.24787 19.3501 9.3117 19.3501H17.0573C17.9245 19.3501 18.6274 20.0531 18.6274 20.9202C18.6274 21.7873 17.9245 22.4903 17.0573 22.4903H9.3117C4.51363 22.4903 0.624023 18.6007 0.624023 13.8026C0.624023 9.00452 4.51363 5.11491 9.3117 5.11491H13.2669L11.3416 3.18966C10.7285 2.57652 10.7285 1.58241 11.3416 0.96926Z" fill="white"/>
</svg>
